<mxfile host="app.diagrams.net" modified="2022-05-31T11:32:24.646Z" agent="5.0 (Macintosh; Intel Mac OS X 10_15_7) AppleWebKit/537.36 (KHTML, like Gecko) Chrome/101.0.0.0 Safari/537.36" etag="COry-_LQzejHgInovpeW" version="18.1.3" type="github">
  <diagram id="ZGwalyleYwvO8AtcDpwx" name="Page-1">
    <mxGraphModel dx="1298" dy="728" grid="1" gridSize="10" guides="1" tooltips="1" connect="1" arrows="1" fold="1" page="1" pageScale="1" pageWidth="850" pageHeight="1100" math="0" shadow="0">
      <root>
        <mxCell id="0" />
        <mxCell id="1" parent="0" />
        <mxCell id="bLqd7wcAviLybuqdrjyT-1" value="Clients" style="shape=umlLifeline;perimeter=lifelinePerimeter;whiteSpace=wrap;html=1;container=1;collapsible=0;recursiveResize=0;outlineConnect=0;fontSize=14;" parent="1" vertex="1">
          <mxGeometry x="80" y="40" width="100" height="480" as="geometry" />
        </mxCell>
        <mxCell id="6OnY6VEBz48OpAhFWJS5-6" value="" style="html=1;points=[];perimeter=orthogonalPerimeter;" parent="bLqd7wcAviLybuqdrjyT-1" vertex="1">
          <mxGeometry x="45" y="90" width="10" height="110" as="geometry" />
        </mxCell>
        <mxCell id="6OnY6VEBz48OpAhFWJS5-12" value="" style="html=1;points=[];perimeter=orthogonalPerimeter;" parent="bLqd7wcAviLybuqdrjyT-1" vertex="1">
          <mxGeometry x="45" y="275" width="10" height="110" as="geometry" />
        </mxCell>
        <mxCell id="bLqd7wcAviLybuqdrjyT-2" value="API Service" style="shape=umlLifeline;perimeter=lifelinePerimeter;whiteSpace=wrap;html=1;container=1;collapsible=0;recursiveResize=0;outlineConnect=0;fontSize=14;" parent="1" vertex="1">
          <mxGeometry x="340" y="40" width="100" height="480" as="geometry" />
        </mxCell>
        <mxCell id="bLqd7wcAviLybuqdrjyT-22" value="save to &quot;referee&quot; table" style="html=1;verticalAlign=bottom;endArrow=block;rounded=0;fontSize=14;" parent="bLqd7wcAviLybuqdrjyT-2" edge="1">
          <mxGeometry width="80" relative="1" as="geometry">
            <mxPoint x="49.5" y="310" as="sourcePoint" />
            <mxPoint x="319.5" y="310" as="targetPoint" />
          </mxGeometry>
        </mxCell>
        <mxCell id="6OnY6VEBz48OpAhFWJS5-7" value="" style="html=1;points=[];perimeter=orthogonalPerimeter;" parent="bLqd7wcAviLybuqdrjyT-2" vertex="1">
          <mxGeometry x="45" y="90" width="10" height="110" as="geometry" />
        </mxCell>
        <mxCell id="6OnY6VEBz48OpAhFWJS5-11" value="" style="html=1;points=[];perimeter=orthogonalPerimeter;" parent="bLqd7wcAviLybuqdrjyT-2" vertex="1">
          <mxGeometry x="45" y="270" width="10" height="110" as="geometry" />
        </mxCell>
        <mxCell id="bLqd7wcAviLybuqdrjyT-3" value="Database" style="shape=umlLifeline;perimeter=lifelinePerimeter;whiteSpace=wrap;html=1;container=1;collapsible=0;recursiveResize=0;outlineConnect=0;fontSize=14;" parent="1" vertex="1">
          <mxGeometry x="610" y="40" width="100" height="480" as="geometry" />
        </mxCell>
        <mxCell id="6OnY6VEBz48OpAhFWJS5-10" value="" style="html=1;points=[];perimeter=orthogonalPerimeter;" parent="bLqd7wcAviLybuqdrjyT-3" vertex="1">
          <mxGeometry x="45" y="300" width="10" height="60" as="geometry" />
        </mxCell>
        <mxCell id="6OnY6VEBz48OpAhFWJS5-8" value="" style="html=1;points=[];perimeter=orthogonalPerimeter;" parent="bLqd7wcAviLybuqdrjyT-3" vertex="1">
          <mxGeometry x="45" y="120" width="10" height="50" as="geometry" />
        </mxCell>
        <mxCell id="bLqd7wcAviLybuqdrjyT-9" value="get referee info" style="html=1;verticalAlign=bottom;endArrow=block;rounded=0;fontSize=14;" parent="1" edge="1">
          <mxGeometry width="80" relative="1" as="geometry">
            <mxPoint x="129.5" y="151" as="sourcePoint" />
            <mxPoint x="389.5" y="151" as="targetPoint" />
          </mxGeometry>
        </mxCell>
        <mxCell id="bLqd7wcAviLybuqdrjyT-10" value="get referee&amp;nbsp;info" style="html=1;verticalAlign=bottom;endArrow=block;rounded=0;fontSize=14;" parent="1" edge="1">
          <mxGeometry width="80" relative="1" as="geometry">
            <mxPoint x="389.5" y="171" as="sourcePoint" />
            <mxPoint x="659.5" y="171" as="targetPoint" />
          </mxGeometry>
        </mxCell>
        <mxCell id="bLqd7wcAviLybuqdrjyT-11" value="return result" style="html=1;verticalAlign=bottom;endArrow=open;dashed=1;endSize=8;rounded=0;fontSize=14;" parent="1" edge="1">
          <mxGeometry relative="1" as="geometry">
            <mxPoint x="659.5" y="201" as="sourcePoint" />
            <mxPoint x="389.5" y="201" as="targetPoint" />
          </mxGeometry>
        </mxCell>
        <mxCell id="bLqd7wcAviLybuqdrjyT-12" value="return result" style="html=1;verticalAlign=bottom;endArrow=open;dashed=1;endSize=8;rounded=0;fontSize=14;" parent="1" edge="1">
          <mxGeometry relative="1" as="geometry">
            <mxPoint x="389.5" y="221" as="sourcePoint" />
            <mxPoint x="129.5" y="221" as="targetPoint" />
          </mxGeometry>
        </mxCell>
        <mxCell id="bLqd7wcAviLybuqdrjyT-21" value="unlock reward" style="html=1;verticalAlign=bottom;endArrow=block;rounded=0;fontSize=14;" parent="1" edge="1">
          <mxGeometry width="80" relative="1" as="geometry">
            <mxPoint x="129.5" y="331" as="sourcePoint" />
            <mxPoint x="389.5" y="331" as="targetPoint" />
          </mxGeometry>
        </mxCell>
        <mxCell id="bLqd7wcAviLybuqdrjyT-24" value="return result (success or failed)" style="html=1;verticalAlign=bottom;endArrow=open;dashed=1;endSize=8;rounded=0;fontSize=14;" parent="1" edge="1">
          <mxGeometry x="0.0333" relative="1" as="geometry">
            <mxPoint x="659.5" y="390" as="sourcePoint" />
            <mxPoint x="389.5" y="390" as="targetPoint" />
            <mxPoint as="offset" />
          </mxGeometry>
        </mxCell>
        <mxCell id="bLqd7wcAviLybuqdrjyT-25" value="return result (success or failed)" style="html=1;verticalAlign=bottom;endArrow=open;dashed=1;endSize=8;rounded=0;fontSize=14;" parent="1" edge="1">
          <mxGeometry x="-0.0038" relative="1" as="geometry">
            <mxPoint x="389.5" y="411" as="sourcePoint" />
            <mxPoint x="130" y="411" as="targetPoint" />
            <mxPoint x="1" as="offset" />
          </mxGeometry>
        </mxCell>
      </root>
    </mxGraphModel>
  </diagram>
</mxfile>
